<?xml version="1.0" encoding="UTF-8"?><svg id="Camada_1" xmlns="http://www.w3.org/2000/svg" viewBox="32 63 704 75"><defs><style>.cls-1{fill:#0500ff;}.cls-2{fill:#0586ff;}</style></defs><path class="cls-2" d="m42.52,81.93c4.11-5.54,9.18-9.86,15.2-12.95,6.02-3.09,12.42-4.64,19.22-4.64,7.96,0,14.58,2.04,19.89,6.12s8.5,9.72,9.59,16.93h-16.42c-1.09-3.26-2.96-5.73-5.61-7.39s-5.92-2.5-9.79-2.5c-4.15,0-8.01.95-11.58,2.86-3.57,1.9-6.56,4.62-8.98,8.16-2.41,3.54-4.03,7.62-4.84,12.24-.34,2.18-.51,3.98-.51,5.41,0,5.51,1.58,9.86,4.74,13.05,3.16,3.2,7.46,4.79,12.9,4.79,3.88,0,7.45-.85,10.71-2.55,3.26-1.7,6.02-4.18,8.26-7.45h16.42c-3.67,7.28-8.86,12.94-15.55,16.98-6.7,4.05-14.02,6.07-21.98,6.07-5.98,0-11.27-1.21-15.86-3.62-4.59-2.41-8.14-5.83-10.66-10.25-2.52-4.42-3.77-9.49-3.77-15.2,0-2.38.2-4.79.61-7.24,1.22-7,3.89-13.27,8.01-18.82Z"/><path class="cls-2" d="m127.37,133.33c-4.59-2.55-8.14-6.08-10.66-10.61-2.52-4.52-3.77-9.71-3.77-15.55,0-8.16,1.82-15.5,5.46-22.03,3.64-6.53,8.67-11.64,15.09-15.35,6.43-3.71,13.65-5.56,21.67-5.56,6.05,0,11.37,1.26,15.96,3.77,4.59,2.52,8.14,6.04,10.66,10.56,2.51,4.52,3.77,9.67,3.77,15.45,0,8.3-1.8,15.71-5.41,22.23-3.6,6.53-8.64,11.64-15.09,15.35-6.46,3.71-13.73,5.56-21.83,5.56-5.98,0-11.27-1.27-15.86-3.82Zm31.41-13.21c3.91-2.58,6.94-6.07,9.08-10.45s3.21-9.16,3.21-14.33c0-5.57-1.56-9.96-4.69-13.16-3.13-3.2-7.51-4.79-13.16-4.79-5.03,0-9.5,1.29-13.41,3.88-3.91,2.58-6.94,6.05-9.08,10.4-2.14,4.35-3.21,9.11-3.21,14.28,0,5.58,1.55,9.98,4.64,13.21,3.09,3.23,7.46,4.84,13.1,4.84,5.1,0,9.6-1.29,13.51-3.88Z"/><path class="cls-2" d="m250.93,136.44h-14.38l-23.56-48.85-8.67,48.85h-14.38l12.65-71.29h14.28l23.66,48.95,8.67-48.95h14.28l-12.54,71.29Z"/><path class="cls-2" d="m389.83,76.37l-3.26,18.46h23.97l-1.94,11.01h-23.97l-3.37,19.28h27.03l-2.04,11.32h-41.41l12.65-71.29h41.31l-1.94,11.22h-27.03Z"/><path class="cls-2" d="m430.07,81.93c4.11-5.54,9.18-9.86,15.2-12.95,6.02-3.09,12.43-4.64,19.22-4.64,7.96,0,14.58,2.04,19.89,6.12,5.3,4.08,8.5,9.72,9.59,16.93h-16.42c-1.09-3.26-2.96-5.73-5.61-7.39s-5.92-2.5-9.79-2.5c-4.15,0-8.01.95-11.58,2.86-3.57,1.9-6.56,4.62-8.97,8.16-2.41,3.54-4.03,7.62-4.84,12.24-.34,2.18-.51,3.98-.51,5.41,0,5.51,1.58,9.86,4.74,13.05,3.16,3.2,7.46,4.79,12.9,4.79,3.88,0,7.44-.85,10.71-2.55,3.26-1.7,6.02-4.18,8.26-7.45h16.42c-3.67,7.28-8.86,12.94-15.55,16.98-6.7,4.05-14.02,6.07-21.98,6.07-5.98,0-11.27-1.21-15.86-3.62-4.59-2.41-8.14-5.83-10.66-10.25-2.52-4.42-3.77-9.49-3.77-15.2,0-2.38.21-4.79.61-7.24,1.22-7,3.89-13.27,8.01-18.82Z"/><path class="cls-2" d="m558.52,65.25l-2.04,11.22h-18.87l-10.61,59.97h-14.38l10.61-59.97h-18.97l2.04-11.22h52.22Z"/><path class="cls-2" d="m583.2,65.25l-12.54,71.19h-14.38l12.65-71.19h14.28Z"/><path class="cls-2" d="m645.62,136.44h-14.38l-23.56-48.85-8.67,48.85h-14.38l12.65-71.29h14.28l23.66,48.95,8.67-48.95h14.28l-12.54,71.29Z"/><path class="cls-2" d="m670.6,81.93c4.15-5.54,9.25-9.86,15.3-12.95,6.05-3.09,12.48-4.64,19.28-4.64,8.02,0,14.63,1.96,19.84,5.86,5.2,3.91,8.35,9.4,9.43,16.47h-16.42c-1.09-2.99-2.92-5.27-5.51-6.83-2.58-1.56-5.78-2.35-9.59-2.35-4.22,0-8.12.95-11.73,2.86-3.61,1.9-6.63,4.62-9.08,8.16-2.45,3.54-4.08,7.62-4.89,12.24-.34,1.63-.51,3.5-.51,5.61,0,5.58,1.65,9.94,4.95,13.11,3.3,3.16,7.84,4.74,13.62,4.74,5.37,0,10.08-1.46,14.13-4.39,4.04-2.92,7.05-6.97,9.03-12.14h-24.48l1.84-10.81h38.55l-2.24,12.44c-1.84,4.96-4.69,9.55-8.57,13.77-3.88,4.22-8.5,7.6-13.87,10.15s-11.12,3.83-17.24,3.83-11.37-1.22-15.96-3.67c-4.59-2.45-8.16-5.86-10.71-10.25-2.55-4.38-3.83-9.47-3.83-15.25,0-2.31.21-4.69.61-7.14,1.22-7,3.91-13.27,8.06-18.82Z"/><path class="cls-1" d="m350.15,135.85h-14.28l-8.67-48.95-23.66,48.95h-14.28l-12.65-71.29h14.38l8.67,48.85,23.56-48.85h14.38l12.54,71.29Z"/></svg>