<?xml version="1.0" encoding="UTF-8"?><svg id="Camada_1" xmlns="http://www.w3.org/2000/svg" xmlns:xlink="http://www.w3.org/1999/xlink" viewBox="16 14 112 110"><defs><style>.cls-1{fill:#fff;}.cls-2{fill:url(#Gradiente_sem_nome_14);}.cls-2,.cls-3{opacity:.86;}</style><linearGradient id="Gradiente_sem_nome_14" x1="16.78" y1="69.11" x2="126.75" y2="69.11" gradientUnits="userSpaceOnUse"><stop offset="0" stop-color="#0586ff"/><stop offset=".03" stop-color="#0578ff" stop-opacity=".97"/><stop offset=".14" stop-color="#054dff" stop-opacity=".87"/><stop offset=".25" stop-color="#052bff" stop-opacity=".8"/><stop offset=".35" stop-color="#0513ff" stop-opacity=".74"/><stop offset=".44" stop-color="#0505ff" stop-opacity=".71"/><stop offset=".52" stop-color="#0500ff" stop-opacity=".7"/><stop offset=".61" stop-color="#0504ff" stop-opacity=".72"/><stop offset=".71" stop-color="#0513ff" stop-opacity=".76"/><stop offset=".82" stop-color="#052aff" stop-opacity=".83"/><stop offset=".94" stop-color="#054bff" stop-opacity=".93"/><stop offset="1" stop-color="#0560ff"/></linearGradient></defs><rect class="cls-2" x="16.78" y="14.12" width="109.97" height="109.97" rx="19.89" ry="19.89"/><g class="cls-3"><path class="cls-1" d="m30.05,41.9c.1-.3.21-.61.31-.91.75-2.22,2.73-3.74,5.06-3.84,1.14-.05,2.28-.03,3.42-.02.81.01,1.29.45,1.32,1.14.03.72-.46,1.24-1.28,1.27-.95.03-1.9,0-2.85.02-2.24.04-3.53,1.34-3.53,3.57,0,17.32,0,34.64,0,51.95,0,2.24,1.28,3.58,3.5,3.59,9.07.02,18.13.02,27.2,0,2.18,0,3.47-1.36,3.49-3.54,0-.46-.02-.92.01-1.38.04-.7.44-1.11,1.13-1.16.66-.05,1.08.31,1.25.94,1,3.7-1.76,7.53-5.56,7.55-9.28.05-18.57.04-27.85,0-2.66,0-4.76-1.74-5.45-4.31-.04-.15-.11-.3-.16-.45,0-18.14,0-36.28,0-54.42Z"/><path class="cls-1" d="m106.15,75.43c-1.98,0-3.85,0-5.72,0-2.66,0-5.32,0-7.98,0-.44,0-.73.1-.99.51-.71,1.14-1.84,1.63-3.14,1.8-.28,2.34-1.6,3.63-3.86,3.94-.58,2.58-1.47,3.49-3.84,3.95-1.11,3.75-3.52,4.88-6.66,3.02-1.08,1.31-2.43,2.11-4.22,1.82-1.82-.29-2.85-1.43-3.3-3.22-2.38.05-3.92-1.03-4.48-3.38-2.95-.38-4.03-1.33-4.4-3.95-1.22-.2-2.26-.75-3-1.82-.14-.2-.46-.26-.69-.4-1.68-1.03-3.36-2.07-5.05-3.1-.22-.13-.48-.3-.72-.3-3.53-.02-7.06-.01-10.72-.01,0,.32,0,.61,0,.89,0,2.36,0,4.72,0,7.09,0,1.08-.45,1.67-1.24,1.66-.76-.01-1.2-.59-1.2-1.62,0-12.6,0-25.2,0-37.8,0-1.62.82-2.47,2.44-2.5,1.36-.02,2.72,0,4.07,0,.74,0,1.26.28,1.49,1,.53,1.65,1.67,2.24,3.36,2.18,2.33-.08,4.67-.04,7-.01,1.36.02,2.34-.54,2.76-1.83.35-1.07,1.02-1.41,2.09-1.35,1.22.06,2.44,0,3.66.02,1.56.03,2.4.89,2.42,2.45.01.79,0,1.57,0,2.36,0,.99-.49,1.59-1.25,1.58-.74-.01-1.18-.58-1.19-1.54,0-.76,0-1.51,0-2.4-1.13,0-2.2-.02-3.27.02-.17,0-.38.27-.48.46-1.01,1.8-2.55,2.67-4.61,2.67-2.55,0-5.1,0-7.66,0-2.08,0-3.65-.85-4.67-2.69-.11-.2-.37-.43-.57-.44-1.02-.04-2.05-.02-3.11-.02v8.47c.28,0,.54,0,.8,0,4.48,0,8.96.11,13.44-.05,1.81-.07,3.59-.74,5.4-1.1,1.67-.33,3.34-.76,5.03-.88,3.36-.23,6.42.79,9.19,2.7.24.16.67.25.93.16,3.3-1.22,6.62-1.26,10-.4,1.11.28,2.29.44,3.44.45,6.46.04,12.92.02,19.39.02.32,0,.65,0,1.03,0v-9.37c-1.06,0-2.11-.02-3.15.02-.18,0-.41.23-.51.42-1.03,1.88-2.62,2.73-4.74,2.71-2.55-.02-5.1,0-7.66,0-2.02,0-3.53-.88-4.54-2.64-.12-.22-.41-.47-.63-.48-1-.05-2-.02-3.13-.02,0,1.19,0,2.32,0,3.45,0,.46.02.92,0,1.38-.04.71-.53,1.2-1.17,1.21-.66.01-1.22-.5-1.24-1.25-.04-1.25-.01-2.5-.01-3.75,0-3,.49-3.5,3.5-3.5,1,0,2.01.01,3.01,0,.74-.01,1.27.26,1.5.99.52,1.64,1.65,2.26,3.35,2.2,2.33-.08,4.67-.04,7-.01,1.35.02,2.34-.52,2.77-1.81.35-1.05,1-1.43,2.08-1.37,1.19.07,2.39,0,3.58.02,1.67.03,2.51.86,2.51,2.51,0,12.38,0,24.76,0,37.15,0,1.01-.46,1.6-1.22,1.59-.76,0-1.21-.59-1.21-1.61,0-2.03,0-4.06,0-6.21Zm-38.12-12.53c-.24.27-.43.49-.64.71-3.45,3.65-6.89,7.3-10.34,10.96-.7.74-.85,1.54-.42,2.2.45.67,1.09.74,2.18.45.42-.11,1.1,0,1.37.27.26.28.17.91.2,1.39,0,.12-.13.23-.18.36-.48,1.09.23,2.2,1.41,2.09.47-.04.92-.37,1.35-.63.53-.31,1.03-.36,1.51.02.48.38.58.89.33,1.46-.06.12-.13.24-.19.36-.34.68-.28,1.32.28,1.86.48.47,1.37.5,1.97.1.18-.12.32-.29.49-.43.48-.38,1-.44,1.5-.07.53.39.62.92.38,1.52-.06.15-.16.28-.23.43-.48,1.12.3,2.28,1.5,2.07.62-.11,1.17-.6,1.84-.97-1.45-1.41-2.02-2.86-1.45-4.6.57-1.74,1.92-2.53,3.63-2.78.3-2.37,1.65-3.63,3.88-3.94.29-2.37,1.64-3.63,3.89-3.94.31-3.2,3.19-4.59,5.42-3.6,1.86.83,3.27,2.32,4.17,4.17.25.52.49.65,1,.65,4.15-.02,8.31,0,12.46,0,.26,0,.51,0,.75,0v-16.75h-.95c-5.81,0-11.62-.03-17.43.01-2.42.02-4.79-.1-7.16-.76-2.14-.59-4.35-.45-6.61.27.3.27.51.47.73.66,1.27,1.1,2.55,2.19,3.82,3.3,1.78,1.57,2.1,3.82.81,5.6-1.28,1.77-3.55,2.16-5.58.95-1.87-1.11-3.73-2.22-5.68-3.39Zm-14.22,12.17c.54-.82.89-1.54,1.41-2.1,3.63-3.89,7.29-7.75,10.95-11.62,1.03-1.09,1.96-1.22,3.27-.45,1.85,1.09,3.68,2.2,5.52,3.29.94.55,1.79.45,2.33-.27.57-.75.43-1.61-.43-2.36-2.11-1.84-4.2-3.69-6.35-5.48-2.29-1.91-4.97-2.93-7.96-2.78-1.72.09-3.44.43-5.11.88-3.06.83-6.13,1.27-9.31,1.16-3.28-.12-6.57-.03-9.86-.02-.29,0-.57.02-.86.04v16.45c.33,0,.62,0,.91,0,3.37,0,6.73.01,10.1,0,.67,0,1.16.22,1.69.63,1.21.94,2.49,1.79,3.68,2.63Zm20.55,7.08c-.23.18-.83.44-1.01.88-.19.44-.15,1.2.13,1.56.61.81,1.37,1.56,2.19,2.15.37.27,1.15.3,1.56.08.41-.22.76-.86.81-1.35.1-.89-2.45-3.31-3.68-3.33Zm15.46-8.24c-.16-.47-.18-.82-.36-1.01-.76-.8-1.53-1.61-2.38-2.32-.55-.46-1.44-.26-1.92.27-.48.54-.56,1.38-.07,1.94.69.76,1.39,1.54,2.22,2.13.37.27,1.12.27,1.57.09.41-.17.66-.75.94-1.1Zm-11.37,4.14c-.42.33-1.03.58-1.21,1.01-.19.44-.17,1.2.11,1.56.63.83,1.41,1.6,2.25,2.21.36.26,1.14.25,1.56.04.38-.2.7-.83.75-1.3.1-.9-2.39-3.31-3.46-3.51Zm3.81-3.93c-.41.35-.99.62-1.16,1.06-.17.45-.12,1.19.16,1.56.59.79,1.33,1.52,2.13,2.1.38.27,1.14.34,1.55.14.41-.2.77-.84.83-1.33.13-.96-2.39-3.36-3.52-3.52Z"/><path class="cls-1" d="m113.47,69.12c0,8.72,0,17.43,0,26.15,0,2.82-1.77,5.07-4.43,5.69-.52.12-1.08.14-1.62.14-8.99,0-17.97,0-26.96,0-3.67,0-6.05-2.4-6.06-6.08,0-.6-.02-1.2,0-1.79.04-.82.56-1.33,1.27-1.3.68.02,1.14.53,1.16,1.31.02.68,0,1.36,0,2.04.04,1.98,1.32,3.33,3.31,3.39,1.79.05,3.58.02,5.38.02,7.28,0,14.55,0,21.83,0,1.95,0,3.2-.89,3.59-2.54.08-.34.09-.7.09-1.05,0-17.32,0-34.65,0-51.97,0-2.19-1.28-3.55-3.45-3.56-9.1-.02-18.19-.02-27.29,0-2.13,0-3.44,1.37-3.45,3.49-.01,1.93,0,3.86,0,5.78,0,1.04-.43,1.57-1.23,1.56-.77-.01-1.2-.54-1.21-1.52,0-2.01-.03-4.02,0-6.03.06-3.28,2.48-5.71,5.75-5.72,9.18-.03,18.35-.02,27.53,0,3.37,0,5.78,2.47,5.78,5.85.01,8.72,0,17.43,0,26.15Z"/><path class="cls-1" d="m37.38,93.73h24.42c0-1.07,0-2.09,0-3.12,0-.98.43-1.49,1.22-1.49.77,0,1.21.54,1.22,1.5.01.76,0,1.52,0,2.28,0,2.73-.58,3.32-3.27,3.32-7.63,0-15.25,0-22.88,0-.27,0-.54,0-.81,0-1.51-.07-2.33-.91-2.34-2.44-.01-1.87,0-3.75,0-5.62,0-.95.46-1.49,1.23-1.48.77.01,1.2.54,1.2,1.51,0,1.81,0,3.63,0,5.53Z"/><path class="cls-1" d="m106.15,93.73c0-2.14,0-4.2,0-6.26,0-.94.49-1.47,1.27-1.44.66.03,1.15.49,1.15,1.22.02,2.28.03,4.56,0,6.84-.02,1.16-.84,1.98-1.99,2.1-.32.03-.65.03-.98.03-7.79,0-15.58,0-23.37,0-2.25,0-2.96-.72-2.96-2.98,0-.41-.02-.82.02-1.22.07-.71.58-1.17,1.24-1.15.67.01,1.14.48,1.17,1.2.03.53,0,1.07,0,1.66h24.43Z"/><path class="cls-1" d="m54.17,37.12c2.98,0,5.97,0,8.95,0,3.58.01,5.98,2.4,6,5.96.01,1.55.02,3.09,0,4.64-.02,1.07-.91,1.76-1.71,1.27-.36-.22-.67-.8-.69-1.24-.08-1.51-.03-3.04-.03-4.56,0-2.32-1.3-3.64-3.62-3.65-6.08-.01-12.16,0-18.23,0-1.31,0-1.91-.4-1.89-1.25.02-.82.58-1.18,1.87-1.18,3.12,0,6.24,0,9.36,0Z"/></g></svg>