<?xml version="1.0" encoding="UTF-8"?><svg id="Camada_1" xmlns="http://www.w3.org/2000/svg" xmlns:xlink="http://www.w3.org/1999/xlink" viewBox="9 14 112 110"><defs><style>.cls-1{fill:#fff;}.cls-2{fill:url(#Gradiente_sem_nome_14);opacity:.86;}</style><linearGradient id="Gradiente_sem_nome_14" x1="10.03" y1="69" x2="120" y2="69" gradientUnits="userSpaceOnUse"><stop offset="0" stop-color="#0586ff"/><stop offset=".03" stop-color="#0578ff" stop-opacity=".97"/><stop offset=".14" stop-color="#054dff" stop-opacity=".87"/><stop offset=".25" stop-color="#052bff" stop-opacity=".8"/><stop offset=".35" stop-color="#0513ff" stop-opacity=".74"/><stop offset=".44" stop-color="#0505ff" stop-opacity=".71"/><stop offset=".52" stop-color="#0500ff" stop-opacity=".7"/><stop offset=".61" stop-color="#0504ff" stop-opacity=".72"/><stop offset=".71" stop-color="#0513ff" stop-opacity=".76"/><stop offset=".82" stop-color="#052aff" stop-opacity=".83"/><stop offset=".94" stop-color="#054bff" stop-opacity=".93"/><stop offset="1" stop-color="#0560ff"/></linearGradient></defs><rect class="cls-2" x="10.03" y="14.01" width="109.97" height="109.97" rx="19.89" ry="19.89"/><path class="cls-1" d="m92.19,23.38c1.13,0,2.26,0,3.39,0,.34.08.68.16,1.02.23,7.6,1.38,13.14,7.32,13.87,15.11.69,7.3-3.6,14.22-10.48,16.96-.21.08-.4.21-.62.32,3.13,8.7,3.11,17.36,0,25.99,8.92,3.46,12.08,12.02,10.95,18.6-1.21,7.07-6.74,12.6-13.81,13.81-6.52,1.12-15.11-1.98-18.6-10.97-4.17,1.54-8.49,2.34-12.95,2.35-4.49,0-8.84-.8-13.07-2.36-.14.33-.25.57-.35.81-2.7,6.58-9.31,10.74-16.46,10.36-6.98-.37-13.12-5.25-15.09-12.03-.28-.96-.46-1.95-.69-2.92,0-1.13,0-2.26,0-3.39.05-.2.13-.39.16-.59,1.01-6.35,4.47-10.78,10.36-13.33.21-.09.41-.21.64-.32-.25-.77-.5-1.5-.72-2.23-.89-2.91-1.44-5.87-1.55-8.92-.03-.88.43-1.44,1.16-1.51.79-.08,1.37.43,1.49,1.31.02.15.02.3.03.44.18,3.25.86,6.4,1.93,9.47.23.65.54.75,1.16.69,6.78-.68,12.11,1.82,16.04,7.35.15.21.3.42.48.66.26-.19.49-.33.68-.5.27-.23.54-.47.76-.75,2-2.47,2.05-5.08.76-7.91-1.92-4.19-1.2-7.78,2.06-11.04,3-3,2.64-7.49-.84-9.95-2.4-1.7-4.84-3.33-7.26-4.99-.24-.16-.49-.31-.72-.46-3.71,2.56-7.74,3.66-12.18,3.03-.53-.08-.77.11-.88.59-.59,2.42-1.2,4.83-1.78,7.24-.2.81-.78,1.32-1.49,1.22-.76-.11-1.27-.79-1.14-1.63.17-1.08.33-2.17.6-3.24.41-1.66.9-3.29,1.36-4.96-.21-.09-.39-.19-.58-.26-4.3-1.77-7.41-4.79-9.19-9.07-.64-1.54-.9-3.24-1.34-4.86,0-1.07,0-2.14,0-3.21.06-.23.14-.45.17-.68.35-2.7,1.34-5.15,2.9-7.37.62-.89,1.33-1.1,2.03-.65.73.48.82,1.26.17,2.17-1.43,2.03-2.29,4.28-2.52,6.75-.33,3.44.51,6.57,2.46,9.42.57-.27,1.05-.61,1.59-.74,1.55-.38,3.12-.69,4.69-1.02.82-.17,1.29-1.42.69-2.03-1.98-1.99-2.55-4.48-2.7-7.15-.21-3.89,2.51-7.3,6.22-7.77,4.02-.52,7.62,2.01,8.21,6.01.47,3.21-.08,6.29-2.45,8.77-.56.59-.22,1.18-.16,1.75.02.18.53.35.84.43,2.06.48,4.26.49,6.12,1.8.22-.32.41-.58.58-.86,3.2-5.34,2.49-12.22-1.73-16.75-4.37-4.69-11.15-5.89-16.79-2.98-.26.14-.52.3-.8.39-.72.22-1.31.02-1.65-.66-.32-.65-.14-1.24.44-1.64.41-.29.86-.56,1.33-.71,1.83-.57,3.68-1.08,5.52-1.61,1.07,0,2.14,0,3.21,0,.14.05.27.12.41.14,6.52.95,11,4.52,13.59,10.54.07.16.15.3.25.49,8.7-3.15,17.38-3.12,26.04,0,.13-.28.22-.46.3-.65,1.75-4.23,4.7-7.33,8.91-9.1,1.59-.67,3.34-.96,5.02-1.42Zm6.79,47.55c-.55,0-.98-.02-1.42,0-5.07.21-9.03-1.72-11.87-5.98-1.32-1.98-3.25-3.25-5.59-3.68-1.5-.27-3.07-.22-4.61-.3-3.17-.15-5.96-1.24-8.35-3.32-.69-.6-.75-1.37-.22-1.96.49-.55,1.27-.63,1.91-.08,2.43,2.09,5.27,2.81,8.42,2.71,4.73-.14,8.4,1.81,11.1,5.72,2.56,3.72,6.35,4.62,10.6,4.08.01-.11.04-.23.04-.34-.08-3.53-.77-6.94-1.92-10.28-.24-.69-.53-.9-1.26-.79-2.45.38-4.85.09-7.2-.67-7.66-2.51-12.42-10-11.42-18.01.08-.62,0-.98-.68-1.15-1.49-.38-2.97-.8-4.44-1.26-.57-.18-.84-.03-1.12.47-1.35,2.34-2.73,4.66-4.12,6.97-1.43,2.39-1.77,4.94-1.1,7.63.25,1.02-.08,1.73-.88,1.92-.83.2-1.44-.23-1.7-1.26-.84-3.25-.48-6.36,1.19-9.29,1.17-2.06,2.41-4.09,3.61-6.13.14-.24.27-.5.44-.83-.27-.05-.44-.1-.6-.11-4.92-.35-9.71.21-14.37,1.86-.75.26-.84.62-.74,1.29.33,2.21.11,4.38-.49,6.52-.75,2.71-2.15,5.06-4.12,7.16.3.22.56.41.82.59,2.25,1.55,4.52,3.06,6.75,4.65,4.61,3.3,5.14,9.76,1.15,13.78-2.66,2.68-3.16,4.99-1.55,8.37,2.35,4.92.38,9.98-3.12,12.25-.18.11-.34.51-.27.69.92,2.66,1.2,5.37.83,8.16-.03.21.23.6.45.68,3.19,1.19,6.48,1.91,9.89,2.03.29.01.69-.26.86-.52.54-.85,1.02-1.74,1.49-2.63,1.64-3.11,1.55-6.17-.39-9.1-2.32-3.51-2.82-7.22-1.56-11.21,1.35-4.29,4.16-7.11,8.59-8.02,4.53-.92,8.29.6,11.22,4.17,1.58,1.93,3.15,3.87,4.76,5.78.18.21.6.43.83.37,2.43-.69,4.89-.93,7.4-.58.22.03.63-.19.71-.39,1.21-3.15,1.89-6.42,2.09-9.94Zm-16.76,34.97c.6-.29,1.06-.62,1.56-.74,1.55-.38,3.12-.7,4.68-1.03.82-.17,1.34-1.41.75-2.01-1.84-1.87-2.45-4.18-2.7-6.7-.39-4.03,2.23-7.65,6.08-8.24,4.07-.62,7.8,2,8.35,6.14.42,3.14-.12,6.18-2.45,8.6-.57.59-.26,1.18-.18,1.74.03.2.57.39.9.47,2.06.48,4.24.51,6.05,1.76,4.67-6.46,3.01-16.31-4.92-20.46-5.24-2.74-10.37-2.15-15.17,1.28-.92.66-1.68.7-2.2.06-.54-.66-.33-1.49.59-2.18.7-.52,1.44-1,2.22-1.54-1.86-2.23-3.59-4.5-5.52-6.59-2.47-2.66-6.47-3.21-9.77-1.69-4.76,2.19-6.74,9.52-3.51,14.23,2.78,4.06,2.85,8.3.44,12.58-.25.45-.49.9-.8,1.46,3.62-.18,6.94-.87,10.15-2.1.21-.08.4-.52.4-.79,0-1.01-.15-2.01-.12-3.02.07-2.4.68-4.69,1.77-6.83.39-.77,1.09-1.02,1.77-.71.68.31.94,1.02.65,1.81-.09.25-.23.48-.34.73-2.02,4.8-1.51,9.36,1.29,13.76Zm-57.65-.03c.51-.25.93-.57,1.41-.68,1.58-.39,3.17-.72,4.77-1.05.82-.17,1.34-1.41.75-2-1.84-1.87-2.45-4.17-2.7-6.69-.4-4.01,2.21-7.64,6.07-8.24,4.02-.63,7.77,1.95,8.35,6.04.45,3.17-.07,6.24-2.42,8.69-.57.59-.29,1.17-.2,1.73.03.21.56.41.89.48,2.06.49,4.25.49,6.05,1.77,3.77-5.07,3.69-13.19-1.96-18.42-5.33-4.93-13.72-4.92-19.03,0-5.69,5.28-5.69,13.42-1.97,18.38Zm57.64-57.86c1.17-.37,2.28-.78,3.41-1.07.94-.25,1.92-.36,2.88-.54.83-.16,1.3-1.41.69-2.02-1.92-1.94-2.51-4.36-2.69-6.97-.27-3.99,2.43-7.46,6.21-7.95,4.08-.53,7.7,2.06,8.24,6.18.41,3.11-.12,6.13-2.41,8.52-.6.62-.32,1.22-.22,1.81.03.2.58.38.91.46,2.04.47,4.2.48,6,1.75,3.6-4.61,3.93-12.81-1.77-18.25-5.36-5.11-13.91-5.14-19.29-.07-5.78,5.46-5.43,13.71-1.96,18.16Zm-41.52,46.62c.04-2.47-1.7-4.53-3.97-4.8-2.54-.29-4.8,1.19-5.16,3.68-.32,2.2-.06,4.39,1.41,6.24,1.98,2.47,4.2,2.45,6.2,0,1.25-1.53,1.38-3.36,1.51-5.12Zm.02-58.94c.02-1.3-1.77-3.37-4.08-3.59-2.57-.24-4.8,1.36-5.1,3.87-.14,1.15.06,2.36.26,3.53.26,1.52,1.12,2.72,2.37,3.63,1.44,1.05,2.43,1.04,3.88-.02,2.16-1.56,2.59-3.85,2.68-7.43Zm48.45.49c.09,3.04.49,5.34,2.65,6.91,1.49,1.09,2.47,1.09,3.96.02,2.2-1.59,2.6-3.93,2.65-6.39.05-2.61-2.08-4.68-4.7-4.65-2.58.03-4.58,2.11-4.56,4.11Zm0,58.42c.13,1.81.28,3.67,1.57,5.21,2,2.39,4.17,2.38,6.16-.04,1.28-1.55,1.46-3.41,1.52-5.28.08-2.62-2.03-4.71-4.64-4.7-2.62.01-4.64,2.1-4.6,4.8Zm-5.21-44.52c5.84,5.96,15.35,4.9,19.49.08-.47-.16-.9-.36-1.36-.46-1.42-.29-2.85-.55-4.28-.8-1.8-.32-1.8-.32-2.11-2.15-.02-.13-.1-.26-.11-.28h-3.64c-.03.18-.08.41-.11.64-.14,1.19-.44,1.51-1.64,1.73-.82.15-1.64.26-2.45.43-1.2.24-2.4.52-3.8.82Zm-49.7-3.62c-.02.09-.08.22-.1.37-.26,1.68-.35,1.77-2.01,2.05-1.37.24-2.75.47-4.11.75-.55.11-1.08.35-1.69.55,5.53,5.72,15.03,4.94,19.4-.03-.54-.18-1.02-.4-1.53-.5-1.31-.27-2.62-.48-3.93-.72q-1.94-.37-2.34-2.34c-.02-.08-.09-.14-.08-.12h-3.61Zm3.61,57.72h-3.63c-.02.11-.07.25-.09.39-.22,1.6-.37,1.75-1.94,2.02-1.37.24-2.75.46-4.11.74-.58.12-1.13.36-1.77.57,6.03,6.05,15.56,4.56,19.38-.03-.38-.14-.72-.33-1.09-.4-1.39-.29-2.78-.64-4.19-.78-1.55-.16-2.54-.71-2.49-2.43,0-.05-.06-.1-.06-.09Zm46.1,3.59c5.34,5.66,14.83,5.29,19.51.12-.53-.18-1.02-.4-1.52-.51-1.28-.26-2.56-.56-3.85-.69-1.51-.14-2.51-.66-2.45-2.36,0-.07-.08-.15-.08-.14h-3.68c.3,2.32-1.44,2.35-3.06,2.61-1.57.25-3.12.61-4.87.97Z"/><path class="cls-1" d="m67.78,23.38c1.79.24,3.59.41,5.36.74,1.74.32,3.46.78,5.18,1.23.99.26,1.43.97,1.18,1.75-.23.75-.96,1.08-1.89.81-8.45-2.5-16.88-2.49-25.31.08-1.26.38-2.33-.44-1.92-1.51.18-.46.77-.9,1.27-1.06,3.23-1.02,6.54-1.66,9.93-1.89.23-.02.46-.09.68-.14,1.84,0,3.68,0,5.52,0Z"/><path class="cls-1" d="m19.31,66.15c.24-1.76.4-3.52.73-5.26.34-1.8.8-3.58,1.26-5.36.24-.92.95-1.34,1.72-1.11.75.22,1.1.96.82,1.88-1.6,5.37-2.28,10.86-1.64,16.44.32,2.81,1.03,5.58,1.57,8.37.04.23.14.45.19.68.21.88-.12,1.58-.85,1.79-.74.22-1.46-.16-1.68-1.03-.56-2.24-1.11-4.48-1.57-6.74-.28-1.36-.37-2.75-.55-4.13,0-1.84,0-3.68,0-5.52Z"/><path class="cls-1" d="m63.37,114.6c-3.72-.1-7.84-.73-11.86-1.95-.94-.28-1.37-.91-1.18-1.69.2-.8.95-1.15,1.93-.87,8.42,2.48,16.84,2.49,25.25-.08,1-.31,1.74,0,1.99.77.26.81-.19,1.47-1.24,1.81-4.22,1.36-9.34,2.08-14.88,2.01Z"/><path class="cls-1" d="m110.72,69.18c-.2,4.53-.86,8.94-2.16,13.26-.21.69-.6,1.27-1.36,1.14-.45-.08-.97-.45-1.2-.85-.18-.31-.05-.86.07-1.27,1.27-4.36,1.88-8.81,1.77-13.36-.09-3.82-.67-7.56-1.77-11.22-.08-.26-.15-.51-.21-.77-.19-.82.16-1.5.87-1.7.72-.21,1.43.14,1.66.95.5,1.8,1.06,3.59,1.35,5.43.44,2.78.66,5.59.97,8.39Z"/></svg>